<?xml version="1.0" encoding="UTF-8"?>
<svg width="800" height="600" viewBox="0 0 800 600" fill="none" xmlns="http://www.w3.org/2000/svg">
  <!-- Background with slight gradient -->
  <rect width="800" height="600" rx="40" fill="url(#grad1)"/>
  
  <!-- Candlestick chart group -->
  <g transform="translate(100, 150)">
    <!-- Grid lines -->
    <path d="M0 0 H600" stroke="#2C3E50" stroke-opacity="0.1" stroke-width="1"/>
    <path d="M0 75 H600" stroke="#2C3E50" stroke-opacity="0.1" stroke-width="1"/>
    <path d="M0 150 H600" stroke="#2C3E50" stroke-opacity="0.1" stroke-width="1"/>
    <path d="M0 225 H600" stroke="#2C3E50" stroke-opacity="0.1" stroke-width="1"/>
    <path d="M0 300 H600" stroke="#2C3E50" stroke-opacity="0.1" stroke-width="1"/>
    
    <!-- Candlesticks -->
    <g class="candlesticks">
      <!-- Green (up) candlesticks -->
      <rect x="50" y="100" width="30" height="80" fill="#34C759"/>
      <line x1="65" y1="80" x2="65" y2="190" stroke="#34C759" stroke-width="2"/>
      
      <rect x="150" y="160" width="30" height="60" fill="#34C759"/>
      <line x1="165" y1="140" x2="165" y2="230" stroke="#34C759" stroke-width="2"/>
      
      <rect x="350" y="80" width="30" height="100" fill="#34C759"/>
      <line x1="365" y1="60" x2="365" y2="190" stroke="#34C759" stroke-width="2"/>
      
      <!-- Red (down) candlesticks -->
      <rect x="250" y="120" width="30" height="70" fill="#FF3B30"/>
      <line x1="265" y1="100" x2="265" y2="200" stroke="#FF3B30" stroke-width="2"/>
      
      <rect x="450" y="140" width="30" height="90" fill="#FF3B30"/>
      <line x1="465" y1="120" x2="465" y2="240" stroke="#FF3B30" stroke-width="2"/>
    </g>
    
    <!-- Trend line -->
    <path d="M30 200 Q 150 150 250 180 T 500 120" 
          stroke="#007AFF" 
          stroke-width="2"
          fill="none"
          stroke-dasharray="4 4"/>
  </g>
  
  <!-- Decorative elements -->
  <g transform="translate(650, 100)">
    <circle cx="0" cy="0" r="30" fill="#007AFF" fill-opacity="0.1"/>
    <circle cx="0" cy="0" r="20" fill="#007AFF" fill-opacity="0.2"/>
    <circle cx="0" cy="0" r="10" fill="#007AFF" fill-opacity="0.3"/>
  </g>
  
  <!-- Gradient definition -->
  <defs>
    <linearGradient id="grad1" x1="0" y1="0" x2="800" y2="600" gradientUnits="userSpaceOnUse">
      <stop offset="0%" style="stop-color:#1A1A1A"/>
      <stop offset="100%" style="stop-color:#2C3E50"/>
    </linearGradient>
  </defs>
</svg> 