<?xml version="1.0" encoding="UTF-8"?>
<svg width="800" height="600" viewBox="0 0 800 600" fill="none" xmlns="http://www.w3.org/2000/svg">
  <!-- Background with radial gradient -->
  <defs>
    <radialGradient id="bg-gradient" cx="400" cy="300" r="500" gradientUnits="userSpaceOnUse">
      <stop offset="0%" stop-color="#0F172A"/>
      <stop offset="100%" stop-color="#020617"/>
    </radialGradient>
    
    <!-- Glowing effect for center -->
    <filter id="glow">
      <feGaussianBlur stdDeviation="3" result="blur"/>
      <feComposite in="SourceGraphic" in2="blur" operator="over"/>
    </filter>

    <!-- Connection line gradient -->
    <linearGradient id="line-gradient" x1="0" y1="0" x2="1" y2="0">
      <stop offset="0%" stop-color="#0EA5E9"/>
      <stop offset="100%" stop-color="#0284C7"/>
    </linearGradient>
  </defs>

  <!-- Background -->
  <rect width="800" height="600" fill="url(#bg-gradient)"/>

  <!-- Subtle grid pattern -->
  <path d="M0 50 H800 M0 150 H800 M0 250 H800 M0 350 H800 M0 450 H800 M0 550 H800" 
        stroke="#1E293B" stroke-width="1" opacity="0.1"/>
  <path d="M50 0 V600 M150 0 V600 M250 0 V600 M350 0 V600 M450 0 V600 M550 0 V600 M650 0 V600 M750 0 V600" 
        stroke="#1E293B" stroke-width="1" opacity="0.1"/>

  <!-- Center MCP Hub -->
  <g transform="translate(400,300)" filter="url(#glow)">
    <circle r="50" fill="#0EA5E9" opacity="0.9"/>
    <text x="0" y="8" text-anchor="middle" fill="white" font-family="Arial" font-weight="bold" font-size="24">MCP</text>
  </g>

  <!-- Connecting Components -->
  <g id="components">
    <!-- Data Processing -->
    <g transform="translate(400,100)">
      <rect x="-45" y="-35" width="90" height="70" rx="8" fill="#0284C7" opacity="0.9"/>
      <text x="0" y="-5" text-anchor="middle" fill="white" font-family="Arial" font-size="14">Data</text>
      <text x="0" y="15" text-anchor="middle" fill="white" font-family="Arial" font-size="14">Processing</text>
      <path d="M0,35 L0,115" stroke="url(#line-gradient)" stroke-width="2" stroke-dasharray="4,4">
        <animate attributeName="stroke-dashoffset" from="0" to="8" dur="3s" repeatCount="indefinite"/>
      </path>
    </g>

    <!-- API Gateway -->
    <g transform="translate(650,300)">
      <rect x="-45" y="-35" width="90" height="70" rx="8" fill="#0284C7" opacity="0.9"/>
      <text x="0" y="-5" text-anchor="middle" fill="white" font-family="Arial" font-size="14">API</text>
      <text x="0" y="15" text-anchor="middle" fill="white" font-family="Arial" font-size="14">Gateway</text>
      <path d="M-155,0 L-50,0" stroke="url(#line-gradient)" stroke-width="2" stroke-dasharray="4,4">
        <animate attributeName="stroke-dashoffset" from="0" to="8" dur="3s" repeatCount="indefinite"/>
      </path>
    </g>

    <!-- Context Engine -->
    <g transform="translate(150,300)">
      <rect x="-45" y="-35" width="90" height="70" rx="8" fill="#0284C7" opacity="0.9"/>
      <text x="0" y="-5" text-anchor="middle" fill="white" font-family="Arial" font-size="14">Context</text>
      <text x="0" y="15" text-anchor="middle" fill="white" font-family="Arial" font-size="14">Engine</text>
      <path d="M45,0 L150,0" stroke="url(#line-gradient)" stroke-width="2" stroke-dasharray="4,4">
        <animate attributeName="stroke-dashoffset" from="0" to="8" dur="3s" repeatCount="indefinite"/>
      </path>
    </g>

    <!-- Model Registry -->
    <g transform="translate(400,500)">
      <rect x="-45" y="-35" width="90" height="70" rx="8" fill="#0284C7" opacity="0.9"/>
      <text x="0" y="-5" text-anchor="middle" fill="white" font-family="Arial" font-size="14">Model</text>
      <text x="0" y="15" text-anchor="middle" fill="white" font-family="Arial" font-size="14">Registry</text>
      <path d="M0,-115 L0,-35" stroke="url(#line-gradient)" stroke-width="2" stroke-dasharray="4,4">
        <animate attributeName="stroke-dashoffset" from="0" to="8" dur="3s" repeatCount="indefinite"/>
      </path>
    </g>
  </g>

  <!-- Animated particles -->
  <g>
    <circle r="3" fill="#38BDF8">
      <animateMotion path="M400,300 L400,100 L400,300" dur="3s" repeatCount="indefinite"/>
    </circle>
    <circle r="3" fill="#38BDF8">
      <animateMotion path="M400,300 L650,300 L400,300" dur="3s" repeatCount="indefinite"/>
    </circle>
    <circle r="3" fill="#38BDF8">
      <animateMotion path="M400,300 L150,300 L400,300" dur="3s" repeatCount="indefinite"/>
    </circle>
    <circle r="3" fill="#38BDF8">
      <animateMotion path="M400,300 L400,500 L400,300" dur="3s" repeatCount="indefinite"/>
    </circle>
  </g>

  <!-- Decorative elements -->
  <g opacity="0.1">
    <circle cx="100" cy="100" r="20" fill="#38BDF8"/>
    <circle cx="700" cy="500" r="30" fill="#38BDF8"/>
    <circle cx="200" cy="450" r="15" fill="#38BDF8"/>
    <circle cx="600" cy="150" r="25" fill="#38BDF8"/>
  </g>
</svg> 